<svg id="Raster" xmlns="http://www.w3.org/2000/svg" viewBox="0 0 364.05 143.15"><defs><style>.cls-1{fill:#202867;}.cls-2{fill:#ffcc40;}</style></defs><path class="cls-1" d="M2.94,64A24.1,24.1,0,0,1,11.3,53.85a21.87,21.87,0,0,1,12.63-3.71q10.85,0,16.94,7.92T47,78.72v3.77H13.4a15.26,15.26,0,0,0,3.77,9.41q3.31,3.66,9.19,3.66a15.36,15.36,0,0,0,6.26-1.39A15.42,15.42,0,0,0,38,90.35l6.1,8a23.45,23.45,0,0,1-8.59,5.92,27.73,27.73,0,0,1-10.58,2,24.33,24.33,0,0,1-13.07-3.49A23.19,23.19,0,0,1,3.1,92.9,33.43,33.43,0,0,1,0,78.17,33.66,33.66,0,0,1,2.94,64Zm13.18.66A16.94,16.94,0,0,0,13.4,73.4H34.12a17.27,17.27,0,0,0-2.66-8.75c-1.63-2.51-4.21-3.76-7.76-3.76A8.46,8.46,0,0,0,16.12,64.65Z"/><path class="cls-1" d="M44.75,51.47H58.93L69.67,89,80.53,51.47H94.71L76.87,105H62.58Z"/><path class="cls-1" d="M95.65,64A24.18,24.18,0,0,1,104,53.85a21.87,21.87,0,0,1,12.63-3.71q10.86,0,17,7.92t6.09,20.66v3.77H106.12a15.25,15.25,0,0,0,3.76,9.41q3.33,3.66,9.2,3.66a15.43,15.43,0,0,0,6.26-1.39,15.61,15.61,0,0,0,5.37-3.82l6.09,8a23.33,23.33,0,0,1-8.58,5.92,27.8,27.8,0,0,1-10.58,2,24.3,24.3,0,0,1-13.07-3.49,23.06,23.06,0,0,1-8.75-9.91,33.43,33.43,0,0,1-3.11-14.73A33.66,33.66,0,0,1,95.65,64Zm13.18.66a16.84,16.84,0,0,0-2.71,8.75h20.71a17.18,17.18,0,0,0-2.66-8.75c-1.62-2.51-4.21-3.76-7.75-3.76S110.49,62.14,108.83,64.65Z"/><path class="cls-1" d="M173.69,69.75q0-7.86-7-7.87a8.93,8.93,0,0,0-5.6,1.94A17.21,17.21,0,0,0,157,68.53V105H143.67V51.47H157v7a19.33,19.33,0,0,1,6.59-5.87,18.17,18.17,0,0,1,9.14-2.44q7.2,0,10.74,3.88C185.8,56.6,187,60.19,187,64.76V105H173.69Z"/><path class="cls-1" d="M199.83,102.76q-3.33-3.54-3.32-10.64v-29h-7V51.47h7V36.85H209.8V51.47h8.86V63.1H209.8V89a7.2,7.2,0,0,0,1,4.1,3.31,3.31,0,0,0,2.89,1.44,6.29,6.29,0,0,0,2.32-.44A4.16,4.16,0,0,0,217.66,93l2.77,10.19q-3.44,3.1-10.3,3.1T199.83,102.76Z"/><path class="cls-1" d="M224.25,41.28a7.59,7.59,0,0,1-2.38-5.65,7.77,7.77,0,0,1,2.38-5.7,7.81,7.81,0,0,1,11.25,0,7.88,7.88,0,0,1,2.32,5.7,7.95,7.95,0,0,1-13.57,5.65ZM223.2,51.47h13.29V105H223.2Z"/><path class="cls-1" d="M300.29,69q0-7.08-6.09-7.09a8.2,8.2,0,0,0-5.31,2A15.5,15.5,0,0,0,285,68.53V105H271.72V69q0-7.08-6.1-7.09a8.31,8.31,0,0,0-5.26,2,15.24,15.24,0,0,0-3.93,4.65V105H243.14V51.47h13.29v7a16.63,16.63,0,0,1,6-5.7,17,17,0,0,1,9-2.61A14.43,14.43,0,0,1,280,52.52a11.4,11.4,0,0,1,4.48,6.93,17.51,17.51,0,0,1,6.43-6.54,17.16,17.16,0,0,1,9.19-2.77q6.44,0,10,3.49t3.55,10.69V105h-13.3Z"/><g id="_35_11" data-name="35,11"><path class="cls-2" d="M327.14,36.91h0c6.18,6.2,6.38,15.9,6.38,22.62h1.54c0-6.72.2-16.42,6.38-22.62h0c6.2-6.18,15.9-6.38,22.61-6.38V29c-6.71,0-16.41-.19-22.61-6.37h0c-6.18-6.2-6.38-15.91-6.38-22.62h-1.54c0,6.71-.2,16.41-6.38,22.61h0c-6.2,6.18-15.9,6.38-22.61,6.38v1.55C311.24,30.54,320.94,30.74,327.14,36.91Z"/></g></svg>