<svg width="141" height="63" viewBox="0 0 141 63" fill="none" xmlns="http://www.w3.org/2000/svg">
<path d="M5.00866 50.8568L2.46255 58.8589C2.33395 59.2631 2.73533 59.6337 3.128 59.4734L14.8517 54.6871C15.1331 54.5723 15.4369 54.523 15.7401 54.5432L132.931 62.3246C134.01 62.3963 134.951 61.5968 135.054 60.5201L140.575 2.99139C140.693 1.764 139.683 0.723418 138.453 0.804659L2.36531 9.79067C1.22083 9.86624 0.374234 10.8868 0.511443 12.0256L5.08845 50.0111C5.12271 50.2955 5.0955 50.5839 5.00866 50.8568Z" fill="#5E29BA"/>
<path d="M33.0224 40.1753C34.4259 39.1682 35.1367 37.7956 35.1367 36.0968V35.6936C35.1367 34.5517 34.7906 33.5671 34.1073 32.7687C33.4322 31.9772 32.5061 31.3875 31.3547 31.0174L24.3275 28.7661C23.8691 28.6202 23.4954 28.4105 23.2176 28.1429C22.9576 27.8918 22.8318 27.6452 22.8318 27.389V26.9331C22.8318 25.3442 24.1962 24.5469 26.9988 24.4951H27.2495C30.0578 24.4951 31.501 25.2049 31.6612 26.6647L31.6848 26.8806H34.6905L34.6794 26.6289C34.5335 23.3108 32.0334 21.6282 27.2495 21.6282H26.9388C22.2418 21.684 19.8593 23.4684 19.8593 26.9331V27.389C19.8593 28.3546 20.174 29.2044 20.7936 29.9149C21.4061 30.6184 22.2997 31.1526 23.4468 31.502L30.3929 33.7537C31.585 34.1316 32.165 34.7666 32.165 35.6936V36.0968C32.165 36.9227 31.7509 37.5604 30.8988 38.0456C30.0174 38.5471 28.7702 38.802 27.193 38.802C25.6165 38.802 24.3847 38.5471 23.5308 38.0467C22.7055 37.5628 22.3047 36.9245 22.3047 36.0968V35.8015H19.3033V36.0968C19.3033 37.7956 20.0148 39.1682 21.419 40.1753C22.8028 41.1675 24.7451 41.6696 27.193 41.6696C29.6788 41.6696 31.6397 41.1675 33.0224 40.1753Z" fill="white"/>
<path d="M90.6318 41.6061H87.605V33.0605H78.3548V41.6061H75.3262V22.0775H78.3548V30.2197H87.605V22.0775H90.6318V41.6061Z" fill="white"/>
<path fill-rule="evenodd" clip-rule="evenodd" d="M120.188 35.2708C120.188 37.2031 119.585 38.7826 118.395 39.9676C117.203 41.155 115.563 41.7565 113.521 41.7565C111.499 41.7565 109.872 41.154 108.688 39.9666C107.509 38.7826 106.91 37.2031 106.91 35.2708V22.1169L109.827 22.1165V28.4419C110.738 27.5324 111.977 27.0727 113.521 27.0727C117.945 27.0727 120.188 29.2996 120.188 33.6906V35.2708ZM113.521 29.8059C112.318 29.8059 111.391 30.1073 110.766 30.7008C110.144 31.2933 109.827 32.2997 109.827 33.6906V35.2708C109.827 36.4347 110.146 37.3324 110.802 38.015C111.444 38.6833 112.359 39.022 113.521 39.022C114.684 39.022 115.604 38.6833 116.254 38.0143C116.911 37.34 117.243 36.4171 117.243 35.2708V33.6906C117.243 32.3014 116.927 31.295 116.304 30.7005C115.679 30.1073 114.743 29.8059 113.521 29.8059Z" fill="white"/>
<path d="M103.264 40.2104C104.154 39.1948 104.604 37.4842 104.604 35.1263V27.4411H101.736V35.1263C101.736 36.5872 101.513 37.6187 101.073 38.1912C100.656 38.7368 99.9042 39.0144 98.8383 39.0196H98.705C97.6376 39.0144 96.8853 38.7368 96.4684 38.1912C96.0293 37.6187 95.8065 36.5872 95.8065 35.1263V27.4411H92.9388V35.1263C92.9388 37.4842 93.3894 39.1955 94.2779 40.2104C95.1364 41.1892 96.5352 41.7082 98.4364 41.7548L98.8662 41.7624L99.1162 41.7589V41.7548C101.014 41.7055 102.409 41.1864 103.264 40.2104Z" fill="white"/>
<path fill-rule="evenodd" clip-rule="evenodd" d="M73.0456 35.2708C73.0456 37.2031 72.4417 38.7826 71.2517 39.9676C70.0588 41.155 68.419 41.7565 66.3781 41.7565C64.3553 41.7565 62.7287 41.154 61.5441 39.9676C60.3645 38.782 59.7666 37.2014 59.7666 35.2708V22.1169H62.6837V28.4422C63.5948 27.5328 64.8341 27.0727 66.3781 27.0727C70.8019 27.0727 73.0456 29.2996 73.0456 33.6906V35.2708ZM66.3781 29.8059C65.1745 29.8059 64.247 30.1073 63.6219 30.7008C63.0001 31.2933 62.6837 32.3 62.6837 33.6906V35.2708C62.6837 36.4171 63.0116 37.3407 63.6584 38.015C64.3009 38.6833 65.216 39.022 66.3781 39.022C67.557 39.022 68.4505 38.6926 69.1113 38.0143C69.7764 37.3307 70.0996 36.4337 70.0996 35.2708V33.6906C70.0996 32.3007 69.7839 31.294 69.1603 30.7005C68.5367 30.1073 67.6006 29.8059 66.3781 29.8059Z" fill="white"/>
<path d="M56.1205 40.2104C57.0091 39.193 57.46 37.4828 57.46 35.1263V27.4414H54.5912V35.1263C54.5912 36.5889 54.3684 37.6204 53.9301 38.1912C53.5124 38.7368 52.7594 39.0154 51.6928 39.0196H51.5626C50.4949 39.0154 49.7415 38.7368 49.3242 38.1912C48.8844 37.618 48.6617 36.5865 48.6617 35.1263V27.4414H45.794V35.1263C45.794 37.4835 46.2449 39.1937 47.1338 40.2104C47.9905 41.1892 49.3886 41.7082 51.2923 41.7548L51.7203 41.7624L51.971 41.7589V41.7548C53.87 41.7055 55.2656 41.1864 56.1205 40.2104Z" fill="white"/>
<path d="M43.487 30.3032H40.3597L40.3615 33.6833L40.3597 33.734V35.3149C40.3597 36.4596 40.6879 37.3825 41.3351 38.0584C41.8343 38.5757 42.4686 38.8861 43.2756 39.0085L43.487 39.0406V41.7858L43.2138 41.7607C41.5768 41.6148 40.2331 41.0261 39.2216 40.0101C38.0423 38.8261 37.4441 37.2466 37.4441 35.3149V22.1169H40.3597L40.3651 27.4342H43.487V30.3032Z" fill="white"/>
</svg>
