<svg height="83" viewBox="0 0 175 83" width="175" xmlns="http://www.w3.org/2000/svg"><g fill="none" fill-rule="evenodd"><path d="m0 0h175v83h-175z"/><g fill-rule="nonzero"><g transform="translate(8 11.0053)"><path d="m108.705802 28.8729839h-12.2939534l6.5704164-28.87239327h7.293104s2.340748-.07882203 3.343757 1.58467581c1.003008 1.66349785.395053 3.54228573.395053 3.54228573l-5.308377 23.74425533z" fill="#d82028"/><path d="m93.6500262 41.7809743 2.2603181-10.5609761h30.2877887l-1.485589 6.6798733c-.345375 1.4999715-.991181 2.5270109-1.937415 3.0834709-.947418.5576365-2.152684.8141022-3.615799.7705736z" fill="#d82028"/><g fill="#fff" transform="translate(0 51.1373)"><path d="m3.22311178 2.54936339h-3.22311178v-2.34113205h9.40084126v2.34113205h-3.20891826v8.09749341h-2.96881122z"/><path d="m11.4104071.20823134h2.9688112v10.43862546h-2.9688112z"/><path d="m16.8524391 5.42813229c0-3.17641031 2.443651-5.42813229 5.7720314-5.42813229 1.9338671 0 3.4939715.70116317 4.5135393 1.96819795l-1.8889209 1.69996774c-.6599987-.79057323-1.4690293-1.22232975-2.4744036-1.22232975-1.7245127 0-2.9238651 1.19291854-2.9238651 2.98229635s1.1993524 2.98229635 2.9238651 2.98229635c1.0041915 0 1.8144049-.43293296 2.4744036-1.22232974l1.8889209 1.69996774c-1.0195678 1.26703476-2.5784894 1.96819796-4.5135393 1.96819796-3.3283804 0-5.7720314-2.25172199-5.7720314-5.42813231z"/><path d="m33.4056316 6.85986983-1.1094602 1.17762471v2.60936226h-2.9392413v-10.43862546h2.9392413v4.33991765l4.0628951-4.33991765h3.2680579l-4.2876258 4.62344168 4.5135393 5.81636018h-3.4490253z"/><path d="m49.958824 8.36572361v2.28113319h-8.4262196v-10.43862546h8.2310587v2.28113319h-5.2930001v1.7599666h4.6625713v2.20701695h-4.6625713v1.90937553h5.4869782z"/><path d="m54.7420402 2.54936339h-3.2231118v-2.34113205h9.4008413v2.34113205h-3.2089183v8.09749341h-2.9688112z"/><path d="m62.1640682 9.70805108.9746217-2.17760574c.9296756.6117531 2.2484901 1.02939223 3.4632188 1.02939223 1.2147288 0 1.7091364-.34352289 1.7091364-.85057209 0-1.65526271-5.9671923-.44705034-5.9671923-4.32462382 0-1.8646705 1.5293518-3.38464166 4.6483777-3.38464166 1.3649435 0 2.7736503.31293524 3.8085945.90939451l-.9142992 2.19172312c-1.0041916-.53646041-1.9941896-.80469062-2.9084888-.80469062-1.2442986 0-1.69376.41763914-1.69376.93998217 0 1.59526384 5.9518159.4023453 5.9518159 4.25050758 0 1.81878901-1.5293517 3.37052424-4.6483777 3.37052424-1.7245126 0-3.433649-.4623441-4.423647-1.14821347z"/><path d="m81.731018 2.48936453v2.29642701h4.6330014v2.28113319h-4.6330014v3.57875557h-2.9688112v-10.4386254h8.2310587v2.28113318h-5.2622475z"/><path d="m88.6586385 5.42813229c0-3.13170528 2.4744036-5.42813229 5.8323538-5.42813229s5.8323537 2.29642701 5.8323537 5.42813229-2.4744035 5.42813231-5.8323537 5.42813231-5.8323538-2.29642703-5.8323538-5.42813231zm8.6663266 0c0-1.80467163-1.2442986-2.98229635-2.8339728-2.98229635s-2.8339728 1.17762472-2.8339728 2.98229635c0 1.80467164 1.2442986 2.98229635 2.8339728 2.98229635s2.8339728-1.17762471 2.8339728-2.98229635z"/><path d="m107.370429 7.87279179h-1.619244v2.77406501h-2.968812v-10.43862546h4.79741c2.863543 0 4.662571 1.47644258 4.662571 3.86227966 0 1.53644143-.749891 2.66936111-2.054512 3.29523159l2.263867 3.28111421h-3.178166l-1.904297-2.77406501zm.030752-5.33872223h-1.648814v3.05758904h1.648814c1.228923 0 1.843975-.56704806 1.843975-1.5211476 0-.95409955-.615052-1.53644144-1.843975-1.53644144z"/><path d="m120.040511.20823134h2.968811v8.09749341h5.007947v2.34113205h-7.976758z"/><path d="m138.512194 8.36572361v2.28113319h-8.42622v-10.43862546h8.231059v2.28113319h-5.293v1.7599666h4.662571v2.20701695h-4.662571v1.90937553h5.486978z"/><path d="m140.327782 9.70805108.974621-2.17760574c.929676.6117531 2.24849 1.02939223 3.463219 1.02939223s1.709136-.34352289 1.709136-.85057209c0-1.65526271-5.967192-.44705034-5.967192-4.32462382 0-1.8646705 1.529352-3.38464166 4.648378-3.38464166 1.364943 0 2.77365.31293524 3.808594.90939451l-.914299 2.19172312c-1.004191-.53646041-1.994189-.80469062-2.908489-.80469062-1.244298 0-1.69376.41763914-1.69376.93998217 0 1.59526384 5.951816.4023453 5.951816 4.25050758 0 1.81878901-1.529351 3.37052424-4.648377 3.37052424-1.724513 0-3.433649-.4623441-4.423647-1.14821347z"/><path d="m150.927975 9.70805108.974622-2.17760574c.929676.6117531 2.24849 1.02939223 3.463219 1.02939223s1.709136-.34352289 1.709136-.85057209c0-1.65526271-5.967192-.44705034-5.967192-4.32462382 0-1.8646705 1.529352-3.38464166 4.648378-3.38464166 1.364943 0 2.77365.31293524 3.808594.90939451l-.914299 2.19172312c-1.004192-.53646041-1.99419-.80469062-2.908489-.80469062-1.244298 0-1.69376.41763914-1.69376.93998217 0 1.59526384 5.951816.4023453 5.951816 4.25050758 0 1.81878901-1.529352 3.37052424-4.648378 3.37052424-1.724512 0-3.433649-.4623441-4.423647-1.14821347z"/></g><text fill="#d82028" font-family="Montserrat-ExtraBold, Montserrat" font-size="2.938214" font-weight="700" transform="translate(127.0214 39.7775)"><tspan x=".00553" y="3">™</tspan></text></g><path d="m37.7283272 20.7927554 1.4572013-6.5375231s.183333-3.0222955 4.4331094-3.2552323h64.5651391l-2.459028 9.8045198h-20.8952265l-1.413438 6.5010531h16.4065261l-1.4169864 6.3657616s-.3808595 3.4269938-4.6779476 3.4269938h-12.4406201l-3.4123587 15.6891141h-12.2939537l7.216222-31.9829226z" fill="#d82028"/><path d="m56.5986117 52.7827366-12.3199752.0023529 6.6827823-29.8500219h12.1733088z" fill="#d82028"/></g></g></svg>